<svg xmlns="http://www.w3.org/2000/svg" width="31.776" height="31.776" viewBox="0 0 31.776 31.776"><path d="M27.121,0H4.655A4.66,4.66,0,0,0,0,4.655V27.121a4.66,4.66,0,0,0,4.655,4.655H27.121a4.66,4.66,0,0,0,4.655-4.655V4.655A4.66,4.66,0,0,0,27.121,0ZM15.95,24.2a8.378,8.378,0,1,1,8.378-8.378A8.388,8.388,0,0,1,15.95,24.2ZM25.259,9.309a2.793,2.793,0,1,1,2.793-2.793A2.8,2.8,0,0,1,25.259,9.309Zm0,0"/><path d="M392.9,90a.9.9,0,1,0,.9.9A.9.9,0,0,0,392.9,90Zm0,0" transform="translate(-367.618 -84.402)"/><path d="M158.284,150a6.284,6.284,0,1,0,6.284,6.284A6.292,6.292,0,0,0,158.284,150Zm0,0" transform="translate(-142.333 -140.46)"/></svg>