<svg xmlns="http://www.w3.org/2000/svg" width="20.033" height="20.033" viewBox="0 0 20.033 20.033"><defs><style>.a{fill:#fff;}</style></defs><path class="a" d="M17.1,0H2.935A2.938,2.938,0,0,0,0,2.935V17.1a2.938,2.938,0,0,0,2.935,2.935H17.1A2.938,2.938,0,0,0,20.033,17.1V2.935A2.938,2.938,0,0,0,17.1,0ZM10.056,15.259a5.282,5.282,0,1,1,5.282-5.282A5.288,5.288,0,0,1,10.056,15.259Zm5.869-9.39a1.761,1.761,0,1,1,1.761-1.761A1.763,1.763,0,0,1,15.925,5.869Zm0,0"/><path class="a" d="M392.566,90a.566.566,0,1,0,.566.566A.566.566,0,0,0,392.566,90Zm0,0" transform="translate(-376.628 -86.471)"/><path class="a" d="M155.962,150a3.962,3.962,0,1,0,3.962,3.962A3.967,3.967,0,0,0,155.962,150Zm0,0" transform="translate(-145.905 -143.986)"/></svg>