<svg xmlns="http://www.w3.org/2000/svg" width="31.776" height="31.776" viewBox="0 0 31.776 31.776"><path d="M26.439,0H5.337A5.353,5.353,0,0,0,0,5.337v21.1a5.353,5.353,0,0,0,5.337,5.337h21.1a5.353,5.353,0,0,0,5.337-5.337V5.337A5.353,5.353,0,0,0,26.439,0ZM11.916,25.818H7.944v-13.9h3.972ZM9.93,9.93a1.986,1.986,0,1,1,1.986-1.986A1.986,1.986,0,0,1,9.93,9.93ZM25.818,25.818H21.846V17.874a1.986,1.986,0,0,0-3.972,0v7.944H13.9v-13.9h3.972v2.466c.819-1.125,2.071-2.466,3.475-2.466a4.736,4.736,0,0,1,4.468,4.965Z"/></svg>