<svg xmlns="http://www.w3.org/2000/svg" width="20.033" height="20.033" viewBox="0 0 20.033 20.033"><defs><style>.a{fill:#fff;}</style></defs><path class="a" d="M16.668,0H3.365A3.375,3.375,0,0,0,0,3.365v13.3a3.375,3.375,0,0,0,3.365,3.365h13.3a3.375,3.375,0,0,0,3.365-3.365V3.365A3.375,3.375,0,0,0,16.668,0ZM7.512,16.277h-2.5V7.512h2.5ZM6.26,6.26A1.252,1.252,0,1,1,7.512,5.008,1.252,1.252,0,0,1,6.26,6.26ZM16.277,16.277h-2.5V11.268a1.252,1.252,0,0,0-2.5,0v5.008h-2.5V7.512h2.5V9.067c.516-.709,1.306-1.555,2.191-1.555a2.986,2.986,0,0,1,2.817,3.13Z" transform="translate(0 0)"/></svg>