<svg xmlns="http://www.w3.org/2000/svg" width="43.773" height="39.379" viewBox="0 0 43.773 39.379"><defs><style>.a{fill:none;}.b,.c{stroke:none;}.c{fill:#535353;}</style></defs><g class="a" transform="translate(-0.011 -0.025)"><path class="b" d="M26.709,2.8l16.316,28.24a5.53,5.53,0,0,1-4.811,8.3L5.582,39.4a5.53,5.53,0,0,1-4.811-8.3L17.087,2.8A5.562,5.562,0,0,1,26.709,2.8Z"/><path class="c" d="M 21.87163925170898 5.025001525878906 C 21.57069396972656 5.025001525878906 21.47761726379395 5.189434051513672 21.4378719329834 5.259658813476563 L 21.42828369140625 5.276580810546875 L 21.41857147216797 5.293434143066406 L 5.102348327636719 33.60277938842773 L 5.094371795654297 33.61662292480469 L 5.086296081542969 33.63042449951172 C 5.037139892578125 33.7144775390625 4.945629119873047 33.87092590332031 5.085926055908203 34.11552429199219 C 5.248176574707031 34.39839172363281 5.490901947021484 34.40348434448242 5.576976776123047 34.4035758972168 L 38.20331573486328 34.33385848999023 L 38.20866012573242 34.33384704589844 L 38.21400451660156 34.33384704589844 C 38.29572677612305 34.33384704589844 38.54441833496094 34.33384704589844 38.70964050292969 34.04580307006836 C 38.84992980957031 33.80120086669922 38.75841522216797 33.64475631713867 38.70925903320313 33.56069946289063 L 38.7025260925293 33.54920196533203 L 38.69587326049805 33.53766632080078 L 22.38788032531738 5.312301635742188 C 22.34019470214844 5.2315673828125 22.20688629150391 5.025001525878906 21.87163925170898 5.025001525878906 M 21.87163543701172 0.02500152587890625 C 23.74556159973145 0.02500152587890625 25.62820053100586 0.9488906860351563 26.7089729309082 2.796669006347656 L 43.02519607543945 31.03627967834473 C 45.18674850463867 34.73183441162109 42.46738433837891 39.33384704589844 38.21400451660156 39.33384704589844 L 5.581562042236328 39.40357971191406 C 1.328182220458984 39.40357971191406 -1.391181945800781 34.80155563354492 0.7703628540039063 31.10601234436035 L 17.08658409118652 2.796669006347656 C 18.13249969482422 0.9488906860351563 19.99771118164063 0.02500152587890625 21.87163543701172 0.02500152587890625 Z"/></g></svg>